<svg xmlns="http://www.w3.org/2000/svg" viewBox="0 0 200 72" role="img" aria-label="60% standard layout">
  <g fill="#94a3b8" opacity="0.9">
    <rect x="0" y="0" width="10" height="10" rx="1.5"/><rect x="12" y="0" width="10" height="10" rx="1.5"/><rect x="24" y="0" width="10" height="10" rx="1.5"/><rect x="36" y="0" width="10" height="10" rx="1.5"/><rect x="48" y="0" width="10" height="10" rx="1.5"/><rect x="60" y="0" width="10" height="10" rx="1.5"/><rect x="72" y="0" width="10" height="10" rx="1.5"/><rect x="84" y="0" width="10" height="10" rx="1.5"/><rect x="96" y="0" width="10" height="10" rx="1.5"/><rect x="108" y="0" width="10" height="10" rx="1.5"/><rect x="120" y="0" width="10" height="10" rx="1.5"/><rect x="132" y="0" width="10" height="10" rx="1.5"/><rect x="144" y="0" width="10" height="10" rx="1.5"/><rect x="156" y="0" width="10" height="10" rx="1.5"/>
    <rect x="0" y="14" width="10" height="10" rx="1.5"/><rect x="12" y="14" width="10" height="10" rx="1.5"/><rect x="24" y="14" width="10" height="10" rx="1.5"/><rect x="36" y="14" width="10" height="10" rx="1.5"/><rect x="48" y="14" width="10" height="10" rx="1.5"/><rect x="60" y="14" width="10" height="10" rx="1.5"/><rect x="72" y="14" width="10" height="10" rx="1.5"/><rect x="84" y="14" width="10" height="10" rx="1.5"/><rect x="96" y="14" width="10" height="10" rx="1.5"/><rect x="108" y="14" width="10" height="10" rx="1.5"/><rect x="120" y="14" width="10" height="10" rx="1.5"/><rect x="132" y="14" width="10" height="10" rx="1.5"/><rect x="144" y="14" width="10" height="10" rx="1.5"/>
    <rect x="0" y="28" width="10" height="10" rx="1.5"/><rect x="12" y="28" width="10" height="10" rx="1.5"/><rect x="24" y="28" width="10" height="10" rx="1.5"/><rect x="36" y="28" width="10" height="10" rx="1.5"/><rect x="48" y="28" width="10" height="10" rx="1.5"/><rect x="60" y="28" width="10" height="10" rx="1.5"/><rect x="72" y="28" width="10" height="10" rx="1.5"/><rect x="84" y="28" width="10" height="10" rx="1.5"/><rect x="96" y="28" width="10" height="10" rx="1.5"/><rect x="108" y="28" width="10" height="10" rx="1.5"/><rect x="120" y="28" width="10" height="10" rx="1.5"/><rect x="132" y="28" width="10" height="10" rx="1.5"/>
    <rect x="0" y="42" width="10" height="10" rx="1.5"/><rect x="12" y="42" width="10" height="10" rx="1.5"/><rect x="24" y="42" width="10" height="10" rx="1.5"/><rect x="36" y="42" width="10" height="10" rx="1.5"/><rect x="48" y="42" width="10" height="10" rx="1.5"/><rect x="60" y="42" width="10" height="10" rx="1.5"/><rect x="72" y="42" width="10" height="10" rx="1.5"/><rect x="84" y="42" width="10" height="10" rx="1.5"/><rect x="96" y="42" width="10" height="10" rx="1.5"/><rect x="108" y="42" width="10" height="10" rx="1.5"/><rect x="120" y="42" width="10" height="10" rx="1.5"/><rect x="132" y="42" width="10" height="10" rx="1.5"/>
    <rect x="0" y="58" width="22" height="10" rx="1.5"/><rect x="24" y="58" width="58" height="10" rx="1.5"/><rect x="84" y="58" width="22" height="10" rx="1.5"/><rect x="108" y="58" width="10" height="10" rx="1.5"/><rect x="120" y="58" width="10" height="10" rx="1.5"/><rect x="132" y="58" width="10" height="10" rx="1.5"/><rect x="144" y="58" width="10" height="10" rx="1.5"/>
  </g>
</svg>
