<svg xmlns="http://www.w3.org/2000/svg" viewBox="0 0 220 72" role="img" aria-label="Split 60 layout">
  <g fill="#94a3b8" opacity="0.9">
    <g>
      <rect x="0" y="0" width="10" height="10" rx="1.5"/><rect x="12" y="0" width="10" height="10" rx="1.5"/><rect x="24" y="0" width="10" height="10" rx="1.5"/><rect x="36" y="0" width="10" height="10" rx="1.5"/><rect x="48" y="0" width="10" height="10" rx="1.5"/><rect x="60" y="0" width="10" height="10" rx="1.5"/>
      <rect x="0" y="14" width="10" height="10" rx="1.5"/><rect x="12" y="14" width="10" height="10" rx="1.5"/><rect x="24" y="14" width="10" height="10" rx="1.5"/><rect x="36" y="14" width="10" height="10" rx="1.5"/><rect x="48" y="14" width="10" height="10" rx="1.5"/><rect x="60" y="14" width="10" height="10" rx="1.5"/>
      <rect x="0" y="28" width="10" height="10" rx="1.5"/><rect x="12" y="28" width="10" height="10" rx="1.5"/><rect x="24" y="28" width="10" height="10" rx="1.5"/><rect x="36" y="28" width="10" height="10" rx="1.5"/><rect x="48" y="28" width="10" height="10" rx="1.5"/>
      <rect x="0" y="42" width="10" height="10" rx="1.5"/><rect x="12" y="42" width="10" height="10" rx="1.5"/><rect x="24" y="42" width="10" height="10" rx="1.5"/><rect x="36" y="42" width="10" height="10" rx="1.5"/><rect x="48" y="42" width="10" height="10" rx="1.5"/>
      <rect x="0" y="58" width="22" height="10" rx="1.5"/><rect x="24" y="58" width="34" height="10" rx="1.5"/>
    </g>
    <g transform="translate(118 0)">
      <rect x="0" y="0" width="10" height="10" rx="1.5"/><rect x="12" y="0" width="10" height="10" rx="1.5"/><rect x="24" y="0" width="10" height="10" rx="1.5"/><rect x="36" y="0" width="10" height="10" rx="1.5"/><rect x="48" y="0" width="10" height="10" rx="1.5"/><rect x="60" y="0" width="10" height="10" rx="1.5"/>
      <rect x="0" y="14" width="10" height="10" rx="1.5"/><rect x="12" y="14" width="10" height="10" rx="1.5"/><rect x="24" y="14" width="10" height="10" rx="1.5"/><rect x="36" y="14" width="10" height="10" rx="1.5"/><rect x="48" y="14" width="10" height="10" rx="1.5"/><rect x="60" y="14" width="10" height="10" rx="1.5"/>
      <rect x="12" y="28" width="10" height="10" rx="1.5"/><rect x="24" y="28" width="10" height="10" rx="1.5"/><rect x="36" y="28" width="10" height="10" rx="1.5"/><rect x="48" y="28" width="10" height="10" rx="1.5"/><rect x="60" y="28" width="10" height="10" rx="1.5"/>
      <rect x="12" y="42" width="10" height="10" rx="1.5"/><rect x="24" y="42" width="10" height="10" rx="1.5"/><rect x="36" y="42" width="10" height="10" rx="1.5"/><rect x="48" y="42" width="10" height="10" rx="1.5"/><rect x="60" y="42" width="10" height="10" rx="1.5"/>
      <rect x="12" y="58" width="34" height="10" rx="1.5"/><rect x="48" y="58" width="22" height="10" rx="1.5"/>
    </g>
  </g>
</svg>
