<svg xmlns="http://www.w3.org/2000/svg" viewBox="0 0 220 86" role="img" aria-label="TKL layout">
  <g fill="#94a3b8" opacity="0.9">
    <rect x="0" y="0" width="10" height="10" rx="1.5"/><rect x="12" y="0" width="10" height="10" rx="1.5"/><rect x="24" y="0" width="10" height="10" rx="1.5"/><rect x="36" y="0" width="10" height="10" rx="1.5"/><rect x="48" y="0" width="10" height="10" rx="1.5"/><rect x="60" y="0" width="10" height="10" rx="1.5"/><rect x="72" y="0" width="10" height="10" rx="1.5"/><rect x="84" y="0" width="10" height="10" rx="1.5"/><rect x="96" y="0" width="10" height="10" rx="1.5"/><rect x="108" y="0" width="10" height="10" rx="1.5"/><rect x="120" y="0" width="10" height="10" rx="1.5"/><rect x="132" y="0" width="10" height="10" rx="1.5"/><rect x="144" y="0" width="10" height="10" rx="1.5"/><rect x="156" y="0" width="10" height="10" rx="1.5"/><rect x="168" y="0" width="10" height="10" rx="1.5"/>
    <rect x="0" y="16" width="10" height="10" rx="1.5"/><rect x="12" y="16" width="10" height="10" rx="1.5"/><rect x="24" y="16" width="10" height="10" rx="1.5"/><rect x="36" y="16" width="10" height="10" rx="1.5"/><rect x="48" y="16" width="10" height="10" rx="1.5"/><rect x="60" y="16" width="10" height="10" rx="1.5"/><rect x="72" y="16" width="10" height="10" rx="1.5"/><rect x="84" y="16" width="10" height="10" rx="1.5"/><rect x="96" y="16" width="10" height="10" rx="1.5"/><rect x="108" y="16" width="10" height="10" rx="1.5"/><rect x="120" y="16" width="10" height="10" rx="1.5"/><rect x="132" y="16" width="10" height="10" rx="1.5"/><rect x="144" y="16" width="10" height="10" rx="1.5"/>
    <rect x="0" y="32" width="10" height="10" rx="1.5"/><rect x="12" y="32" width="10" height="10" rx="1.5"/><rect x="24" y="32" width="10" height="10" rx="1.5"/><rect x="36" y="32" width="10" height="10" rx="1.5"/><rect x="48" y="32" width="10" height="10" rx="1.5"/><rect x="60" y="32" width="10" height="10" rx="1.5"/><rect x="72" y="32" width="10" height="10" rx="1.5"/><rect x="84" y="32" width="10" height="10" rx="1.5"/><rect x="96" y="32" width="10" height="10" rx="1.5"/><rect x="108" y="32" width="10" height="10" rx="1.5"/><rect x="120" y="32" width="10" height="10" rx="1.5"/><rect x="132" y="32" width="10" height="10" rx="1.5"/>
    <rect x="0" y="48" width="10" height="10" rx="1.5"/><rect x="12" y="48" width="10" height="10" rx="1.5"/><rect x="24" y="48" width="10" height="10" rx="1.5"/><rect x="36" y="48" width="10" height="10" rx="1.5"/><rect x="48" y="48" width="10" height="10" rx="1.5"/><rect x="60" y="48" width="10" height="10" rx="1.5"/><rect x="72" y="48" width="10" height="10" rx="1.5"/><rect x="84" y="48" width="10" height="10" rx="1.5"/><rect x="96" y="48" width="10" height="10" rx="1.5"/><rect x="108" y="48" width="10" height="10" rx="1.5"/><rect x="120" y="48" width="10" height="10" rx="1.5"/><rect x="132" y="48" width="10" height="10" rx="1.5"/>
    <rect x="0" y="64" width="22" height="10" rx="1.5"/><rect x="24" y="64" width="70" height="10" rx="1.5"/><rect x="96" y="64" width="10" height="10" rx="1.5"/><rect x="108" y="64" width="10" height="10" rx="1.5"/><rect x="120" y="64" width="10" height="10" rx="1.5"/><rect x="132" y="64" width="10" height="10" rx="1.5"/>
    <rect x="168" y="48" width="10" height="10" rx="1.5"/><rect x="180" y="48" width="10" height="10" rx="1.5"/><rect x="192" y="48" width="10" height="10" rx="1.5"/>
    <rect x="156" y="64" width="10" height="10" rx="1.5"/><rect x="168" y="64" width="10" height="10" rx="1.5"/><rect x="180" y="64" width="10" height="10" rx="1.5"/><rect x="192" y="64" width="10" height="10" rx="1.5"/>
  </g>
</svg>
